<svg width="20" height="20" viewBox="0 0 20 20" fill="none" xmlns="http://www.w3.org/2000/svg">
<path d="M15.9211 15.9206H4.07899C3.76491 15.9206 3.46371 15.7958 3.24162 15.5737C3.01954 15.3516 2.89478 15.0504 2.89478 14.7364V6.44689C2.89478 6.13281 3.01954 5.83161 3.24162 5.60952C3.46371 5.38744 3.76491 5.26268 4.07899 5.26268H6.44697L7.63118 3.48636H12.368L13.5522 5.26268H15.9211C16.2352 5.26268 16.5364 5.38744 16.7585 5.60952C16.9805 5.83161 17.1053 6.13281 17.1053 6.44689V14.7364C17.1053 15.0504 16.9805 15.3516 16.7585 15.5737C16.5364 15.7958 16.2352 15.9206 15.9211 15.9206Z" stroke="white" stroke-width="1.6" stroke-linecap="round" stroke-linejoin="round"/>
<path d="M10 12.96C11.4716 12.96 12.6645 11.7671 12.6645 10.2955C12.6645 8.82397 11.4716 7.63105 10 7.63105C8.5285 7.63105 7.33557 8.82397 7.33557 10.2955C7.33557 11.7671 8.5285 12.96 10 12.96Z" stroke="white" stroke-width="1.6" stroke-linecap="round" stroke-linejoin="round"/>
</svg>
