<svg width="1000" height="1000" viewBox="0 0 1000 1000" fill="none" xmlns="http://www.w3.org/2000/svg">
<path d="M290.234 303.516C284.366 297.591 281.074 289.589 281.074 281.25C281.074 272.911 284.366 264.909 290.234 258.985L477.734 71.4846C483.659 65.6164 491.661 62.3245 500 62.3245C508.339 62.3245 516.341 65.6164 522.266 71.4846L709.766 258.985C715.634 264.909 718.926 272.911 718.926 281.25C718.926 289.589 715.634 297.591 709.766 303.516C703.792 309.291 695.809 312.52 687.5 312.52C679.191 312.52 671.208 309.291 665.234 303.516L531.25 169.141V500C531.25 508.288 527.958 516.237 522.097 522.097C516.237 527.958 508.288 531.25 500 531.25C491.712 531.25 483.763 527.958 477.903 522.097C472.042 516.237 468.75 508.288 468.75 500V169.141L334.766 303.516C328.841 309.384 320.839 312.676 312.5 312.676C304.161 312.676 296.159 309.384 290.234 303.516V303.516ZM937.5 531.25V781.25C937.5 797.826 930.915 813.723 919.194 825.444C907.473 837.165 891.576 843.75 875 843.75H125C108.424 843.75 92.5268 837.165 80.8058 825.444C69.0848 813.723 62.5 797.826 62.5 781.25V531.25C62.5 514.674 69.0848 498.777 80.8058 487.056C92.5268 475.335 108.424 468.75 125 468.75H390.625C394.769 468.75 398.743 470.396 401.674 473.327C404.604 476.257 406.25 480.231 406.25 484.375V498.047C406.25 550.391 449.219 594.922 501.953 593.75C526.477 593.239 549.824 583.137 566.985 565.61C584.147 548.084 593.755 524.53 593.75 500V484.375C593.75 480.231 595.396 476.257 598.326 473.327C601.257 470.396 605.231 468.75 609.375 468.75H875C891.576 468.75 907.473 475.335 919.194 487.056C930.915 498.777 937.5 514.674 937.5 531.25ZM781.25 656.25C781.25 646.979 778.501 637.916 773.35 630.208C768.199 622.499 760.879 616.491 752.313 612.943C743.748 609.396 734.323 608.467 725.23 610.276C716.137 612.085 707.785 616.549 701.229 623.105C694.674 629.66 690.209 638.013 688.401 647.105C686.592 656.198 687.52 665.623 691.068 674.188C694.616 682.754 700.624 690.075 708.333 695.225C716.041 700.376 725.104 703.125 734.375 703.125C746.807 703.125 758.73 698.187 767.521 689.396C776.311 680.605 781.25 668.682 781.25 656.25V656.25Z" fill="#1BB55C"/>
</svg>
